<svg width="137" height="137" viewBox="0 0 137 137" fill="none" xmlns="http://www.w3.org/2000/svg">
<path d="M45.6666 91.3333H30.9962C17.9241 91.3333 11.4166 84.8258 11.4166 71.7537V30.9962C11.4166 17.9242 17.9241 11.4167 30.9962 11.4167H57.0833C70.1554 11.4167 76.6629 17.9242 76.6629 30.9962" stroke="#69B9FF" stroke-width="8.5625" stroke-linecap="round" stroke-linejoin="round"/>
<path d="M84.8829 85.625H103.492M94.1875 94.9296V76.3204M106.004 125.583H79.9167C66.8446 125.583 60.3371 119.076 60.3371 106.004V65.2463C60.3371 52.1742 66.8446 45.6667 79.9167 45.6667H106.004C119.076 45.6667 125.583 52.1742 125.583 65.2463V106.004C125.583 119.076 119.076 125.583 106.004 125.583Z" stroke="#69B9FF" stroke-width="8.5625" stroke-linecap="round" stroke-linejoin="round"/>
</svg>
