<svg width="137" height="137" viewBox="0 0 137 137" fill="none" xmlns="http://www.w3.org/2000/svg">
<path d="M124.499 22.4908C115.708 44.4108 93.6737 74.2083 75.2358 88.9929L63.9903 98.0121C62.5633 99.0396 61.1362 99.9529 59.5378 100.581C59.5378 99.5533 59.4808 98.4117 59.3095 97.3271C58.6816 92.5321 56.5124 88.0796 52.6878 84.255C48.8062 80.3733 44.0683 78.09 39.2162 77.4621C38.0745 77.405 36.9328 77.2908 35.7912 77.405C36.4191 75.6354 37.3895 73.98 38.5883 72.61L47.4932 61.3646C62.2207 42.9267 92.1324 20.7783 113.995 12.0446C117.363 10.7887 120.617 11.7021 122.672 13.8142C124.841 15.9262 125.869 19.18 124.499 22.4908V22.4908Z" stroke="#69B9FF" stroke-width="8.5625" stroke-linecap="round" stroke-linejoin="round"/>
<path d="M81.2866 82.5996C81.2866 67.7008 69.185 55.5992 54.2862 55.5992M59.5379 100.581C59.5379 106.86 57.1404 112.854 52.6308 117.42C49.1487 120.903 44.4108 123.3 38.7595 124.042L24.717 125.583C17.0679 126.44 10.5033 119.932 11.4166 112.169L12.9579 98.1263C14.3279 85.625 24.7741 77.6333 35.8483 77.405C36.99 77.3479 38.1887 77.405 39.2733 77.4621C44.1254 78.09 48.8633 80.3163 52.745 84.255C56.5695 88.0796 58.7387 92.5321 59.3666 97.3271C59.4237 98.4117 59.5379 99.4963 59.5379 100.581V100.581Z" stroke="#69B9FF" stroke-width="8.5625" stroke-linecap="round" stroke-linejoin="round"/>
<path d="M114.852 72.6671L119.076 76.8342C127.581 85.3396 127.581 93.7308 119.076 102.236L102.179 119.133C93.7879 127.524 85.2825 127.524 76.8913 119.133M17.7529 59.9946C9.36169 51.4892 9.36169 43.0979 17.7529 34.5925L34.6496 17.6958C43.0409 9.30458 51.5463 9.30458 59.9375 17.6958L64.1617 21.92M64.2188 21.9771L43.0979 43.0979M114.852 72.6671L97.955 89.5067" stroke="#69B9FF" stroke-width="8.5625" stroke-linecap="round"/>
</svg>
